<svg xmlns="http://www.w3.org/2000/svg" width="480" height="104.279" viewBox="0 0 480 104.279"><g transform="translate(0 0.006)"><g transform="translate(161.555 20.973)"><path d="M307.308,80.428a2.321,2.321,0,0,1-1.263-.332,2.862,2.862,0,0,1-.873-.838L294.043,60.889l-5.43,5.826V79.357c0,.46-.14,1.071-1.321,1.071H280.57c-1.187,0-1.321-.611-1.321-1.071V41.991a5.835,5.835,0,0,0-.373-2.241,7.55,7.55,0,0,0-1.1-1.8c-.169-.256-.239-.471-.18-.582.07-.128.343-.2.757-.2h8.94c1.187,0,1.321.611,1.321,1.071V54.952l15.54-16.6a6.9,6.9,0,0,1,.908-.844,1.859,1.859,0,0,1,1.176-.349h8.154a.929.929,0,0,1,.815.3c.047.07.169.262-.221.64L300.3,54l15.517,25.44c.2.3.262.547.169.722-.1.215-.495.256-.8.256h-7.869Z" transform="translate(-277.575 -36.508)" fill="#4c2f47"/><path d="M355.664,80.428c-1.182,0-1.321-.611-1.321-1.071V41.991a5.835,5.835,0,0,0-.372-2.241,7.516,7.516,0,0,0-1.094-1.8c-.169-.256-.239-.471-.18-.582.07-.128.343-.2.751-.2h28.187c1.181,0,1.321.611,1.321,1.071v4.528c0,.46-.14,1.071-1.321,1.071h-17.95V55.453h14.521c1.181,0,1.321.611,1.321,1.071v4.528c0,.46-.14,1.071-1.321,1.071H363.684V73.74h17.95c1.181,0,1.321.611,1.321,1.071v4.528c0,.46-.14,1.071-1.321,1.071H355.658Z" transform="translate(-308.965 -36.508)" fill="#4c2f47"/><path d="M458.632,80.428c-1.187,0-1.321-.611-1.321-1.071V47.194l-9.5,32.11c-.175.757-.728,1.123-1.688,1.123h-7.863a1.531,1.531,0,0,1-1.688-1.123l-9.5-32.11V79.357c0,.46-.14,1.071-1.321,1.071H419.02c-1.187,0-1.321-.611-1.321-1.071V41.991a5.835,5.835,0,0,0-.372-2.241,7.549,7.549,0,0,0-1.1-1.8c-.169-.256-.239-.471-.18-.582.07-.128.343-.2.757-.2h14.586a1.53,1.53,0,0,1,1.688,1.065l9.109,31.581,9.109-31.581a1.531,1.531,0,0,1,1.688-1.065h12.3c1.187,0,1.321.611,1.321,1.071v41.12c0,.46-.14,1.071-1.321,1.071h-6.652Z" transform="translate(-335.444 -36.508)" fill="#4c2f47"/><path d="M520.914,80.428c-1.182,0-1.321-.611-1.321-1.071V41.991a5.836,5.836,0,0,0-.372-2.241,7.514,7.514,0,0,0-1.094-1.8c-.169-.256-.239-.471-.18-.582.07-.128.343-.2.751-.2h28.187c1.182,0,1.321.611,1.321,1.071v4.528c0,.46-.14,1.071-1.321,1.071h-17.95V55.453h14.521c1.182,0,1.321.611,1.321,1.071v4.528c0,.46-.14,1.071-1.321,1.071H528.934V73.74h17.95c1.182,0,1.321.611,1.321,1.071v4.528c0,.46-.14,1.071-1.321,1.071H520.908Z" transform="translate(-378.036 -36.508)" fill="#4c2f47"/><path d="M584.26,80.428c-1.187,0-1.321-.611-1.321-1.071V41.991a5.836,5.836,0,0,0-.372-2.241,7.549,7.549,0,0,0-1.1-1.8c-.169-.256-.239-.471-.18-.582.07-.128.343-.2.757-.2h8.94c1.187,0,1.321.611,1.321,1.071V73.746h17.24c1.187,0,1.321.611,1.321,1.071v4.528c0,.46-.14,1.071-1.321,1.071H584.26Z" transform="translate(-404.511 -36.508)" fill="#4c2f47"/><path d="M642.35,80.428c-1.187,0-1.321-.611-1.321-1.071V41.991a5.836,5.836,0,0,0-.373-2.241,7.549,7.549,0,0,0-1.1-1.8c-.169-.256-.239-.471-.18-.582.07-.128.343-.2.757-.2h8.94c1.187,0,1.321.611,1.321,1.071v41.12c0,.46-.14,1.071-1.321,1.071H642.35Z" transform="translate(-428.791 -36.508)" fill="#4c2f47"/><path d="M701.087,80.428a1.835,1.835,0,0,1-1.909-1.083l-15-28.729V79.351c0,.46-.14,1.071-1.321,1.071H676.13c-1.187,0-1.321-.611-1.321-1.071V41.991a5.836,5.836,0,0,0-.373-2.241,7.549,7.549,0,0,0-1.1-1.8c-.169-.256-.239-.471-.18-.582.07-.128.343-.2.757-.2h11.012a1.854,1.854,0,0,1,1.909,1.024l15.79,30.271V38.231c0-.46.14-1.071,1.321-1.071H710.6c1.187,0,1.321.611,1.321,1.071v41.12c0,.46-.14,1.071-1.321,1.071h-9.51Z" transform="translate(-442.91 -36.508)" fill="#4c2f47"/><path d="M775.536,80.553a27.99,27.99,0,0,1-9.376-1.537,22.305,22.305,0,0,1-7.52-4.406,20.167,20.167,0,0,1-5-7,23.05,23.05,0,0,1-1.81-9.283,23.07,23.07,0,0,1,1.81-9.283,21.13,21.13,0,0,1,4.895-7.031,21.409,21.409,0,0,1,7.234-4.435,26.73,26.73,0,0,1,19.457.623,20.406,20.406,0,0,1,8.049,6.35.876.876,0,0,1,.2.71,1.239,1.239,0,0,1-.71.693l-6.059,2.258a2.088,2.088,0,0,1-.8.169,1.129,1.129,0,0,1-1-.576,13.014,13.014,0,0,0-4.575-3.818,13.3,13.3,0,0,0-10.8-.239,11.959,11.959,0,0,0-4.173,2.992,13.974,13.974,0,0,0-2.788,4.889,20.555,20.555,0,0,0-1.013,6.7,20.4,20.4,0,0,0,1.013,6.7,13.691,13.691,0,0,0,2.829,4.889,12.251,12.251,0,0,0,4.208,2.992,13.18,13.18,0,0,0,5.221,1.03,17.826,17.826,0,0,0,3.067-.274,14.993,14.993,0,0,0,2.933-.815,11.083,11.083,0,0,0,2.468-1.333,5.107,5.107,0,0,0,1.63-1.857l.017-.035V61.905H773.836c-1.187,0-1.321-.611-1.321-1.071V56.306c0-.46.14-1.071,1.321-1.071h19.09c1.187,0,1.321.611,1.321,1.071V71.159a15.318,15.318,0,0,1-2.386,3.288,16.59,16.59,0,0,1-3.894,3.038,23.258,23.258,0,0,1-5.43,2.218,26.259,26.259,0,0,1-7,.856Z" transform="translate(-475.803 -36.04)" fill="#4c2f47"/></g><g transform="translate(183.18 86.323)"><path d="M326.644,153.759h-4.057l-4.866,4.307V148.66H314.73v17.4h2.992v-4.877l1.362-1.129,4.214,6.006h3.655l-5.756-7.764Z" transform="translate(-314.73 -148.462)" fill="#7ba3d6"/><path d="M347.849,163.218a5.18,5.18,0,0,1-.436,2.252,3.233,3.233,0,0,1-1.164,1.368,2.96,2.96,0,0,1-1.618.46,2.193,2.193,0,0,1-1.635-.6,2.469,2.469,0,0,1-.594-1.8V157.34H339.41V165.2a5.288,5.288,0,0,0,.623,2.736,3.647,3.647,0,0,0,1.688,1.507,5.821,5.821,0,0,0,2.386.471,3.985,3.985,0,0,0,2.369-.733,4.483,4.483,0,0,0,1.379-1.705v2.212h2.992V157.34h-2.992v5.884Z" transform="translate(-325.046 -152.09)" fill="#7ba3d6"/><path d="M375.888,157.485a4.477,4.477,0,0,0-2.543-.675,4.186,4.186,0,0,0-2.561.786,4.472,4.472,0,0,0-1.35,1.624l-.32-2.055H366.5v12.3h2.992v-5.5a6.8,6.8,0,0,1,.39-2.479,3.239,3.239,0,0,1,1.083-1.49,2.643,2.643,0,0,1,1.589-.495,2.254,2.254,0,0,1,1.723.7,2.916,2.916,0,0,1,.658,2.066v7.2h2.992v-7.2a7.376,7.376,0,0,0-.512-2.864,4.152,4.152,0,0,0-1.537-1.909Z" transform="translate(-336.369 -151.869)" fill="#7ba3d6"/><path d="M398.951,162.85l-2.916-1.088c-1-.3-1.5-.733-1.5-1.321a1.111,1.111,0,0,1,.541-.908,2.532,2.532,0,0,1,1.49-.384,2.8,2.8,0,0,1,1.571.355,1.273,1.273,0,0,1,.582.966h2.817a3.325,3.325,0,0,0-1.327-2.619,5.693,5.693,0,0,0-3.643-1.03,6.7,6.7,0,0,0-3.783.955,2.919,2.919,0,0,0-1.414,2.514,2.89,2.89,0,0,0,.774,2.025,5.431,5.431,0,0,0,2.218,1.368l2.689.966a3.8,3.8,0,0,1,1.2.553.986.986,0,0,1,.372.821,1.1,1.1,0,0,1-.279.733,1.872,1.872,0,0,1-.78.518,3.178,3.178,0,0,1-1.147.192,3.546,3.546,0,0,1-1.862-.419,1.525,1.525,0,0,1-.722-1.333H391.07a3.62,3.62,0,0,0,.7,2.212,4.292,4.292,0,0,0,1.956,1.409,8.506,8.506,0,0,0,3.05.489,6.268,6.268,0,0,0,2.7-.547,4.665,4.665,0,0,0,1.822-1.414,3.014,3.014,0,0,0,.652-1.845,2.562,2.562,0,0,0-.786-1.926,5.791,5.791,0,0,0-2.206-1.24Z" transform="translate(-346.638 -151.873)" fill="#7ba3d6"/><path d="M419.7,165.262a3.854,3.854,0,0,1-.885.1c-.96,0-1.443-.506-1.443-1.519V157.05h3.347v-1.979h-3.347V151.8h-2.992v3.271H412.66v1.979h1.723v6.9a3.857,3.857,0,0,0,.541,2.13,3.247,3.247,0,0,0,1.443,1.24,4.876,4.876,0,0,0,2,.407,5.112,5.112,0,0,0,1.409-.192q.672-.192,1.379-.471l-.431-2.107a8.511,8.511,0,0,1-1.013.3Z" transform="translate(-355.663 -149.775)" fill="#7ba3d6"/><path d="M437.806,162.85l-2.916-1.088c-1-.3-1.5-.733-1.5-1.321a1.111,1.111,0,0,1,.541-.908,2.532,2.532,0,0,1,1.49-.384A2.778,2.778,0,0,1,437,159.5a1.273,1.273,0,0,1,.582.966h2.811a3.326,3.326,0,0,0-1.327-2.619,5.693,5.693,0,0,0-3.643-1.03,6.7,6.7,0,0,0-3.783.955,2.919,2.919,0,0,0-1.414,2.514,2.89,2.89,0,0,0,.774,2.025,5.431,5.431,0,0,0,2.217,1.368l2.689.966a3.8,3.8,0,0,1,1.2.553.986.986,0,0,1,.372.821,1.1,1.1,0,0,1-.279.733,1.873,1.873,0,0,1-.78.518,3.178,3.178,0,0,1-1.147.192,3.546,3.546,0,0,1-1.862-.419,1.525,1.525,0,0,1-.722-1.333H429.92a3.62,3.62,0,0,0,.7,2.212,4.292,4.292,0,0,0,1.956,1.409,8.506,8.506,0,0,0,3.05.489,6.268,6.268,0,0,0,2.7-.547,4.665,4.665,0,0,0,1.822-1.414,3,3,0,0,0,.652-1.845,2.562,2.562,0,0,0-.786-1.926,5.79,5.79,0,0,0-2.206-1.24Z" transform="translate(-362.877 -151.873)" fill="#7ba3d6"/><path d="M458.552,165.262a3.854,3.854,0,0,1-.885.1c-.966,0-1.443-.506-1.443-1.519V157.05h3.347v-1.979h-3.347V151.8h-2.992v3.271H451.51v1.979h1.723v6.9a3.857,3.857,0,0,0,.541,2.13,3.246,3.246,0,0,0,1.443,1.24,4.876,4.876,0,0,0,2,.407,5.112,5.112,0,0,0,1.409-.192q.672-.192,1.379-.471l-.431-2.107a8.511,8.511,0,0,1-1.013.3Z" transform="translate(-371.901 -149.775)" fill="#7ba3d6"/><path d="M477.706,157.52a6.393,6.393,0,0,0-3.009-.71,6.576,6.576,0,0,0-3.05.71,5.167,5.167,0,0,0-2.159,2.153,7.526,7.526,0,0,0-.8,3.649,7.343,7.343,0,0,0,.8,3.609,5.25,5.25,0,0,0,2.159,2.159,6.394,6.394,0,0,0,3.05.722,6.2,6.2,0,0,0,3.009-.722,5.292,5.292,0,0,0,2.148-2.159,7.374,7.374,0,0,0,.8-3.609,7.558,7.558,0,0,0-.8-3.649A5.208,5.208,0,0,0,477.706,157.52Zm-.442,7.945a2.951,2.951,0,0,1-1.088,1.3,2.9,2.9,0,0,1-1.577.437,2.57,2.57,0,0,1-2.113-.978,4.562,4.562,0,0,1-.78-2.9,5.26,5.26,0,0,1,.4-2.183,2.808,2.808,0,0,1,2.689-1.746,2.508,2.508,0,0,1,2.1.989,4.738,4.738,0,0,1,.768,2.939,5.061,5.061,0,0,1-.4,2.142Z" transform="translate(-379.082 -151.869)" fill="#7ba3d6"/><path d="M498.356,148.32a4.308,4.308,0,0,0-1.857.4,3.191,3.191,0,0,0-1.374,1.234,4.03,4.03,0,0,0-.518,2.165v1.5H492.78V155.6h1.828v10.319h3.015V155.6h2.258v-1.979h-2.258v-1.443a1.74,1.74,0,0,1,.2-.9,1.091,1.091,0,0,1,.518-.46,1.739,1.739,0,0,1,.669-.134,3.287,3.287,0,0,1,.658.07,4.066,4.066,0,0,1,.658.186l.582-2.3c-.413-.087-.838-.157-1.28-.215a9.8,9.8,0,0,0-1.28-.087Z" transform="translate(-389.151 -148.32)" fill="#7ba3d6"/><path d="M524.67,159.639a2.833,2.833,0,0,1,1.554-.46,2.414,2.414,0,0,1,1.641.576,3.054,3.054,0,0,1,.931,1.525l2.444-.128a5.273,5.273,0,0,0-.541-1.519,5.13,5.13,0,0,0-1.007-1.327,4.608,4.608,0,0,0-1.484-.937,5.2,5.2,0,0,0-1.967-.349,5.409,5.409,0,0,0-2.788.757,5.531,5.531,0,0,0-2.078,2.183,7.122,7.122,0,0,0-.786,3.48,6.843,6.843,0,0,0,.786,3.4,5.859,5.859,0,0,0,2.078,2.241,5.235,5.235,0,0,0,2.788.8,5.733,5.733,0,0,0,2.683-.6,4.259,4.259,0,0,0,1.717-1.63,4.532,4.532,0,0,0,.594-2.3h-2.445a2.32,2.32,0,0,1-.64,1.729,2.653,2.653,0,0,1-1.932.629,2.769,2.769,0,0,1-1.624-.506,3.41,3.41,0,0,1-1.141-1.455,6.548,6.548,0,0,1,.029-4.685,3.218,3.218,0,0,1,1.182-1.408Z" transform="translate(-400.775 -151.956)" fill="#7ba3d6"/><path d="M549.26,157.2a3.07,3.07,0,0,0-2.072.762,4.567,4.567,0,0,0-1.2,1.828v-2.4h-2.41v12.234h2.41v-5.454a8.6,8.6,0,0,1,.314-2.479,3.209,3.209,0,0,1,.978-1.583,2.572,2.572,0,0,1,1.7-.553,4.245,4.245,0,0,1,.728.07c.268.047.512.1.739.157l.087-2.4a5.561,5.561,0,0,0-.617-.14,4.033,4.033,0,0,0-.663-.052Z" transform="translate(-410.384 -152.027)" fill="#7ba3d6"/><path d="M567.671,161.344a6.2,6.2,0,0,0-.856-2.2,4.636,4.636,0,0,0-1.635-1.548,4.853,4.853,0,0,0-2.433-.576,5.335,5.335,0,0,0-2.852.774,5.4,5.4,0,0,0-2,2.212,7.533,7.533,0,0,0-.733,3.451,7.214,7.214,0,0,0,.739,3.347,5.7,5.7,0,0,0,2.008,2.258,5.152,5.152,0,0,0,2.84.809,5.794,5.794,0,0,0,2.427-.489,4.624,4.624,0,0,0,1.758-1.374,4.471,4.471,0,0,0,.873-2.078h-2.462a2.185,2.185,0,0,1-.856,1.484,3.309,3.309,0,0,1-3.527-.029,3.193,3.193,0,0,1-1.059-1.438,5.819,5.819,0,0,1-.355-2.066h8.2a8.393,8.393,0,0,0-.081-2.538Zm-7.753-.425A3.3,3.3,0,0,1,561,159.494a2.9,2.9,0,0,1,1.781-.53,2.6,2.6,0,0,1,1.4.349,2.422,2.422,0,0,1,.856.925,4.077,4.077,0,0,1,.413,1.263,6.281,6.281,0,0,1,.07.989H559.57a4.918,4.918,0,0,1,.349-1.566Z" transform="translate(-416.06 -151.956)" fill="#7ba3d6"/><path d="M587.909,157.519a6.521,6.521,0,0,0-2.613-.489,9.025,9.025,0,0,0-2.77.384,3.745,3.745,0,0,0-1.845,1.222,3.409,3.409,0,0,0-.658,2.183h2.66a1.785,1.785,0,0,1,.338-1.117,2.023,2.023,0,0,1,.925-.663,3.887,3.887,0,0,1,1.35-.221,2.572,2.572,0,0,1,1.967.675,3.168,3.168,0,0,1,.623,2.177v1.461a15.192,15.192,0,0,0-1.612-.407,10.244,10.244,0,0,0-1.9-.175,7.68,7.68,0,0,0-2.508.378,3.64,3.64,0,0,0-1.705,1.158,3.12,3.12,0,0,0-.617,1.985,3.64,3.64,0,0,0,2.014,3.277,5.37,5.37,0,0,0,2.549.541,4.137,4.137,0,0,0,2.357-.652,4.272,4.272,0,0,0,1.49-1.723.044.044,0,0,1,.012-.023l.227,2.072H590.3v-7.822a5.137,5.137,0,0,0-.629-2.689,3.685,3.685,0,0,0-1.758-1.525Zm-1.571,10.063a3.269,3.269,0,0,1-1.7.437,2.733,2.733,0,0,1-1.926-.576,1.827,1.827,0,0,1-.611-1.374,1.652,1.652,0,0,1,.774-1.548,3.7,3.7,0,0,1,1.927-.454,9.591,9.591,0,0,1,1.665.157,10.243,10.243,0,0,1,1.414.355v.594a2.448,2.448,0,0,1-.407,1.315,3.222,3.222,0,0,1-1.141,1.094Z" transform="translate(-425.415 -151.961)" fill="#7ba3d6"/><path d="M609.243,165.7a4.418,4.418,0,0,1-.96.111c-1.071,0-1.612-.576-1.612-1.723v-7.24h3.614v-1.635H606.67V151.89h-2.4v3.323H602.41v1.635h1.862v7.316a3.744,3.744,0,0,0,.489,2,3.046,3.046,0,0,0,1.327,1.187,4.355,4.355,0,0,0,1.874.39,5.028,5.028,0,0,0,1.362-.186,12.849,12.849,0,0,0,1.327-.46l-.343-1.711a9.593,9.593,0,0,1-1.065.326Z" transform="translate(-434.974 -149.812)" fill="#7ba3d6"/><path d="M627.948,157.752a5.96,5.96,0,0,0-2.939-.722,6.112,6.112,0,0,0-2.974.722,5.164,5.164,0,0,0-2.072,2.148,7.529,7.529,0,0,0-.762,3.568,7.422,7.422,0,0,0,.762,3.539,5.145,5.145,0,0,0,2.072,2.154,6.033,6.033,0,0,0,2.974.722,5.883,5.883,0,0,0,2.939-.722,5.086,5.086,0,0,0,2.06-2.154,8.722,8.722,0,0,0,0-7.106A5.1,5.1,0,0,0,627.948,157.752Zm-.017,8.044a3.075,3.075,0,0,1-3,1.985,2.849,2.849,0,0,1-2.433-1.135,5.222,5.222,0,0,1-.85-3.178,6.049,6.049,0,0,1,.413-2.363,3.264,3.264,0,0,1,1.182-1.484,3.213,3.213,0,0,1,1.833-.512,2.835,2.835,0,0,1,2.427,1.141,5.32,5.32,0,0,1,.844,3.219,5.967,5.967,0,0,1-.413,2.328Z" transform="translate(-441.992 -151.961)" fill="#7ba3d6"/><path d="M650.49,157.2a3.07,3.07,0,0,0-2.072.762,4.567,4.567,0,0,0-1.2,1.828v-2.4h-2.41v12.234h2.41v-5.454a8.6,8.6,0,0,1,.314-2.479,3.209,3.209,0,0,1,.978-1.583,2.572,2.572,0,0,1,1.7-.553,4.246,4.246,0,0,1,.728.07c.268.047.512.1.739.157l.087-2.4a5.561,5.561,0,0,0-.617-.14,4.033,4.033,0,0,0-.664-.052Z" transform="translate(-452.696 -152.027)" fill="#7ba3d6"/><path d="M668.366,164.294a6.047,6.047,0,0,0-2.3-1.24l-2.625-.925c-1.251-.355-1.874-.9-1.874-1.624a1.364,1.364,0,0,1,.629-1.088,2.786,2.786,0,0,1,1.729-.483,3.48,3.48,0,0,1,1.8.384,1.447,1.447,0,0,1,.716,1.112h2.322a3.106,3.106,0,0,0-1.3-2.427,5.67,5.67,0,0,0-3.544-.972,6.1,6.1,0,0,0-3.562.92,2.9,2.9,0,0,0-.547,4.447,5.551,5.551,0,0,0,2.293,1.35l2.5.85a4.366,4.366,0,0,1,1.473.64,1.189,1.189,0,0,1,.454.984,1.315,1.315,0,0,1-.349.891,2.386,2.386,0,0,1-.937.623,3.639,3.639,0,0,1-1.31.227,3.962,3.962,0,0,1-2.148-.506,1.832,1.832,0,0,1-.844-1.56h-2.27a3.647,3.647,0,0,0,.664,2.1,4.2,4.2,0,0,0,1.857,1.4,7.917,7.917,0,0,0,2.992.5,6.169,6.169,0,0,0,2.631-.524A4.487,4.487,0,0,0,668.559,168a2.931,2.931,0,0,0,.623-1.775,2.519,2.519,0,0,0-.809-1.926Z" transform="translate(-458.489 -151.961)" fill="#7ba3d6"/></g><path d="M73.236,52.713,42.325,40.938a4.184,4.184,0,0,1-2.695-3.911V4.189a4.188,4.188,0,0,0-6.763-3.3L2.1,24.927a5.461,5.461,0,0,0-2.1,4.3V64.19a1.048,1.048,0,0,0,1.694.826L19.323,51.246a3.707,3.707,0,1,1,4.563,5.844L5.663,71.32a1.051,1.051,0,0,0,.274,1.81L40.13,86.15a5.734,5.734,0,0,0,5.57-.838l29.025-22.67a5.763,5.763,0,0,0-1.5-9.929Z" transform="translate(0 -0.001)" fill="#4c2f47"/><path d="M162.717,14.193,126.422.37a5.734,5.734,0,0,0-5.57.838L91.827,23.878a5.763,5.763,0,0,0,1.5,9.929l28.345,10.8a1.977,1.977,0,0,0,1.909-.285L140.67,30.978a3.772,3.772,0,0,1,5.168.437,3.7,3.7,0,0,1-.524,5.337L127.685,50.523a1.964,1.964,0,0,0-.757,1.548V82.33a4.188,4.188,0,0,0,6.763,3.3L164.469,61.6a5.461,5.461,0,0,0,2.1-4.3V19.763a5.949,5.949,0,0,0-3.836-5.564Z" transform="translate(-37.454 0)" fill="#7ba3d6"/></g></svg>